<svg width="70" height="70" viewBox="0 0 70 70" fill="none" xmlns="http://www.w3.org/2000/svg">
<path d="M34.4861 7.52008C35.0524 7.52008 35.5115 7.06098 35.5115 6.49469C35.5115 5.9284 35.0524 5.4693 34.4861 5.4693H23.5747C23.0084 5.4693 22.5493 5.9284 22.5493 6.49469C22.5493 7.06098 23.0084 7.52008 23.5747 7.52008H34.4861Z" fill="#D1D1D1"/>
<path d="M65.6954 27.8637L61.7497 23.918C60.6729 22.8411 59.241 22.248 57.718 22.248C56.9148 22.248 56.1376 22.4145 55.4238 22.7284V9.3625C55.4238 4.2 51.2245 0 46.0627 0H11.9992C6.83672 0 2.63672 4.2 2.63672 9.3625V60.6375C2.63672 65.8 6.83672 70 11.9992 70H14.6762C15.2425 70 15.7016 69.5409 15.7016 68.9746C15.7016 68.4083 15.2425 67.9492 14.6762 67.9492H11.9992C7.96752 67.9492 4.6875 64.6692 4.6875 60.6375V9.3625C4.6875 5.3308 7.96752 2.05078 11.9992 2.05078H46.0627C50.0936 2.05078 53.3731 5.3308 53.3731 9.3625V24.2312L52.3169 25.2874C51.5924 24.8743 50.763 24.7131 49.956 24.8034V11.2494C49.956 8.0623 47.3633 5.46957 44.1763 5.46957H39.5336C38.9673 5.46957 38.5082 5.92867 38.5082 6.49496V6.71822C38.5082 8.86402 36.7624 10.6098 34.6166 10.6098H23.4459C21.3001 10.6098 19.5543 8.86402 19.5543 6.71822V6.49496C19.5543 5.92867 19.0952 5.46957 18.5289 5.46957H13.8847C10.6977 5.46957 8.10492 8.0623 8.10492 11.2494V58.7506C8.10492 61.9377 10.6977 64.5304 13.8847 64.5304H44.1763C47.3633 64.5304 49.956 61.9377 49.956 58.7506V51.6674L53.3732 48.2502V60.6375C53.3732 64.6692 50.0939 67.9492 46.0628 67.9492H18.7779C18.2116 67.9492 17.7525 68.4083 17.7525 68.9746C17.7525 69.5409 18.2116 70 18.7779 70H46.0628C51.2245 70 55.424 65.8 55.424 60.6375V46.1996L59.0261 42.5975C59.6204 42.9361 60.2854 43.1063 60.9507 43.1063C61.9459 43.1063 62.9412 42.7275 63.6989 41.9699C64.9632 40.7055 65.1717 38.78 64.3261 37.2966L65.6955 35.9271C67.9184 33.7039 67.9184 30.0867 65.6954 27.8637ZM35.3748 52.8563L35.689 50.8956L38.718 53.9246L36.758 54.2384C36.3707 54.3004 35.9897 54.1771 35.7127 53.9C35.436 53.6233 35.3129 53.2429 35.3748 52.8563ZM41.2182 53.5244L36.0896 48.396L36.5288 45.6552C36.7076 44.5379 37.1769 43.5096 37.8942 42.6497C37.9263 42.6781 37.9591 42.7059 37.9896 42.7365C38.3895 43.1364 38.6096 43.668 38.6096 44.2334C38.6096 44.7989 38.3895 45.3305 37.9896 45.7304C37.7894 45.9305 37.6892 46.193 37.6892 46.4554C37.6892 46.7178 37.7893 46.9803 37.9896 47.1804C38.3899 47.581 39.0392 47.5809 39.4396 47.1804C40.2651 46.355 41.6081 46.355 42.4335 47.1804C42.8334 47.5803 43.0535 48.1119 43.0535 48.6773C43.0535 49.2428 42.8334 49.7744 42.4335 50.1743C42.2333 50.3744 42.1331 50.6369 42.1331 50.8993C42.1331 51.1617 42.2332 51.4242 42.4335 51.6243C42.8339 52.0248 43.4832 52.0248 43.8835 51.6243C44.7089 50.7989 46.0519 50.7989 46.8774 51.6243C46.9082 51.6551 46.9359 51.6879 46.9645 51.7202C46.1054 52.4363 45.0771 52.9056 43.9589 53.0856L41.2182 53.5244ZM44.9733 47.6351C44.7901 46.9208 44.4189 46.2655 43.8838 45.7302C43.3375 45.184 42.6759 44.8221 41.9767 44.6432L51.4263 35.1936L54.4206 38.1879L44.9733 47.6351ZM44.1763 62.4796H13.8846C11.8283 62.4796 10.1556 60.8069 10.1556 58.7506V11.2494C10.1556 9.19311 11.8283 7.52035 13.8846 7.52035H17.5572C17.95 10.4191 20.4411 12.6606 23.4457 12.6606H34.6165C37.6211 12.6606 40.1122 10.4189 40.5049 7.52035H44.1763C46.2325 7.52035 47.9053 9.19311 47.9053 11.2494V25.6766C47.8154 25.7514 47.7278 25.8303 47.6436 25.9145C46.3789 27.1791 46.1707 29.1051 47.0169 30.5888L44.3384 33.2672C43.938 33.6677 43.938 34.317 44.3384 34.7173C44.7389 35.1177 45.3881 35.1177 45.7884 34.7173L48.3691 32.1366L49.9761 33.7436L40.5291 43.1905C40.3459 42.4763 39.9748 41.8213 39.4398 41.2863C39.403 41.2494 39.365 41.2141 39.327 41.1789L42.8886 37.6172C43.2891 37.2168 43.2891 36.5675 42.8886 36.1672C42.4882 35.7667 41.8389 35.7667 41.4386 36.1672L36.8298 40.776C35.5859 42.0197 34.7818 43.595 34.5038 45.331L33.35 52.5319C33.1827 53.5756 33.5153 54.6027 34.2626 55.35C35.0091 56.1009 36.0558 56.4312 37.0826 56.2633L44.2844 55.1106C45.6119 54.8971 46.8438 54.3763 47.9054 53.5891V58.7506C47.9053 60.8068 46.2324 62.4796 44.1763 62.4796ZM48.4356 50.2875C48.4002 50.2493 48.3646 50.2112 48.3277 50.1743C47.7815 49.6281 47.1201 49.2663 46.4212 49.0874L55.8705 39.6379L57.4778 41.2452L48.4356 50.2875ZM62.2486 40.5197C61.5328 41.2355 60.3683 41.2355 59.6525 40.5197L49.0936 29.9608C48.3779 29.2451 48.3779 28.0805 49.0936 27.3648C49.4515 27.007 49.9216 26.828 50.3916 26.828C50.8617 26.828 51.3317 27.007 51.6896 27.3648L62.2486 37.9237C62.9643 38.6395 62.9643 39.804 62.2486 40.5197ZM64.2453 34.4769L62.9737 35.7485L53.8648 26.6396L55.1365 25.368C55.8261 24.6786 56.7429 24.2987 57.718 24.2987C58.6931 24.2987 59.61 24.6786 60.2995 25.368L64.2452 29.3137C65.6687 30.7372 65.6687 33.0534 64.2453 34.4769Z" fill="#D1D1D1"/>
<path d="M25.8724 23.5457C25.472 23.1452 24.8227 23.1452 24.4224 23.5457L20.0044 27.9636C19.604 28.3641 19.604 29.0134 20.0044 29.4137L24.4224 33.8316C24.6225 34.0318 24.885 34.132 25.1474 34.132C25.4097 34.132 25.6722 34.0319 25.8724 33.8316C26.2728 33.4311 26.2728 32.7819 25.8724 32.3816L22.1795 28.6886L25.8724 24.9957C26.2728 24.5953 26.2728 23.946 25.8724 23.5457Z" fill="#D1D1D1"/>
<path d="M35.2056 33.8317C35.4058 34.0319 35.6683 34.1321 35.9306 34.1321C36.193 34.1321 36.4555 34.032 36.6556 33.8317L41.0736 29.4138C41.474 29.0134 41.474 28.3641 41.0736 27.9638L36.6556 23.5457C36.2553 23.1452 35.6061 23.1452 35.2056 23.5457C34.8052 23.9461 34.8052 24.5954 35.2056 24.9957L38.8985 28.6886L35.2056 32.3816C34.8052 32.782 34.8052 33.4313 35.2056 33.8317Z" fill="#D1D1D1"/>
<path d="M32.4304 19.969C31.88 19.8358 31.3257 20.1734 31.192 20.7237L27.4427 36.1702C27.3092 36.7205 27.647 37.275 28.1974 37.4086C28.2788 37.4283 28.36 37.4377 28.4401 37.4377C28.9024 37.4377 29.3219 37.123 29.4358 36.6539L33.1851 21.2074C33.3185 20.657 32.9807 20.1026 32.4304 19.969Z" fill="#D1D1D1"/>
</svg>
