<svg width="70" height="70" viewBox="0 0 70 70" fill="none" xmlns="http://www.w3.org/2000/svg">
<path d="M8.75 59.0625H10.9375V61.25H8.75V59.0625Z" fill="#D1D1D1"/>
<path d="M13.125 59.0625H15.3125V61.25H13.125V59.0625Z" fill="#D1D1D1"/>
<path d="M17.5 59.0625H19.6875V61.25H17.5V59.0625Z" fill="#D1D1D1"/>
<path d="M4.375 59.0625H6.5625V61.25H4.375V59.0625Z" fill="#D1D1D1"/>
<path d="M8.75 50.3125H10.9375V52.5H8.75V50.3125Z" fill="#D1D1D1"/>
<path d="M13.125 50.3125H15.3125V52.5H13.125V50.3125Z" fill="#D1D1D1"/>
<path d="M4.375 50.3125H6.5625V52.5H4.375V50.3125Z" fill="#D1D1D1"/>
<path d="M8.75 41.5625H10.9375V43.75H8.75V41.5625Z" fill="#D1D1D1"/>
<path d="M4.375 41.5625H6.5625V43.75H4.375V41.5625Z" fill="#D1D1D1"/>
<path d="M13.125 41.5625H15.3125V43.75H13.125V41.5625Z" fill="#D1D1D1"/>
<path d="M8.75 32.8125H10.9375V35H8.75V32.8125Z" fill="#D1D1D1"/>
<path d="M4.375 32.8125H6.5625V35H4.375V32.8125Z" fill="#D1D1D1"/>
<path d="M13.125 32.8125H15.3125V35H13.125V32.8125Z" fill="#D1D1D1"/>
<path d="M8.75 15.3125H10.9375V17.5H8.75V15.3125Z" fill="#D1D1D1"/>
<path d="M4.375 15.3125H6.5625V17.5H4.375V15.3125Z" fill="#D1D1D1"/>
<path d="M13.125 15.3125H15.3125V17.5H13.125V15.3125Z" fill="#D1D1D1"/>
<path d="M17.5 15.3125H19.6875V17.5H17.5V15.3125Z" fill="#D1D1D1"/>
<path d="M8.75 24.0625H10.9375V26.25H8.75V24.0625Z" fill="#D1D1D1"/>
<path d="M4.375 24.0625H6.5625V26.25H4.375V24.0625Z" fill="#D1D1D1"/>
<path d="M13.125 24.0625H15.3125V26.25H13.125V24.0625Z" fill="#D1D1D1"/>
<path d="M39.375 45.9375H36.0938C33.0737 45.9375 30.625 43.4888 30.625 40.4688C30.625 37.4487 33.0737 35 36.0938 35H39.375V37.1875H36.0938C34.2817 37.1875 32.8125 38.6567 32.8125 40.4688C32.8125 42.2808 34.2817 43.75 36.0938 43.75H39.375V45.9375Z" fill="#D1D1D1"/>
<path d="M48.125 45.9375H45.9375V38.2812C45.9375 37.6772 45.4478 37.1875 44.8438 37.1875C44.2397 37.1875 43.75 37.6772 43.75 38.2812V45.9375H41.5625V38.2812C41.5625 36.4692 43.0317 35 44.8438 35C46.6558 35 48.125 36.4692 48.125 38.2812V45.9375Z" fill="#D1D1D1"/>
<path d="M52.5 45.9375H50.3125V38.2812C50.3125 37.6772 49.8228 37.1875 49.2188 37.1875C48.6147 37.1875 48.125 37.6772 48.125 38.2812V45.9375H45.9375V38.2812C45.9375 36.4692 47.4067 35 49.2188 35C51.0308 35 52.5 36.4692 52.5 38.2812V45.9375Z" fill="#D1D1D1"/>
<path d="M60.1562 45.9375H54.6875V43.75H60.1562C60.7603 43.75 61.25 43.2603 61.25 42.6562C61.25 42.0522 60.7603 41.5625 60.1562 41.5625H57.9688C56.1567 41.5625 54.6875 40.0933 54.6875 38.2812C54.6875 36.4692 56.1567 35 57.9688 35H63.4375V37.1875H57.9688C57.3647 37.1875 56.875 37.6772 56.875 38.2812C56.875 38.8853 57.3647 39.375 57.9688 39.375H60.1562C61.9683 39.375 63.4375 40.8442 63.4375 42.6562C63.4375 44.4683 61.9683 45.9375 60.1562 45.9375Z" fill="#D1D1D1"/>
<path d="M59.0625 17.5C57.5068 17.5048 56.0712 18.3385 55.2958 19.6875H39.375V0H0V65.625H39.375V56.875H65.625C68.0411 56.875 70 54.9161 70 52.5V17.5H59.0625ZM54.6875 21.875V24.0625H24.0625V52.5C24.0625 53.708 23.083 54.6875 21.875 54.6875C20.667 54.6875 19.6875 53.708 19.6875 52.5V21.875H54.6875ZM2.1875 6.5625H4.375V4.375H2.1875V2.1875H37.1875V4.375H35V6.5625H37.1875V10.9375H2.1875V6.5625ZM2.1875 13.125H37.1875V19.6875H2.1875V13.125ZM2.1875 21.875H17.5V28.4375H2.1875V21.875ZM2.1875 30.625H17.5V37.1875H2.1875V30.625ZM2.1875 39.375H17.5V45.9375H2.1875V39.375ZM2.1875 48.125H17.5V52.5C17.5043 53.2701 17.7147 54.0253 18.1083 54.6875H2.1875V48.125ZM37.1875 63.4375H2.1875V56.875H37.1875V63.4375ZM67.8125 52.5C67.8125 53.708 66.833 54.6875 65.625 54.6875H25.6625C25.7469 54.5401 25.8222 54.3884 25.889 54.2325C25.889 54.2191 25.9023 54.2074 25.9077 54.194C26.0038 53.9601 26.0791 53.7182 26.133 53.4715C26.1469 53.409 26.1592 53.3475 26.1699 53.2851C26.2206 53.0266 26.2473 52.7638 26.25 52.5V26.25H56.875V21.875C56.875 20.667 57.8545 19.6875 59.0625 19.6875H67.8125V52.5Z" fill="#D1D1D1"/>
<path d="M2.1875 67.8125H8.75V70H2.1875V67.8125Z" fill="#D1D1D1"/>
<path d="M30.625 67.8125H37.1875V70H30.625V67.8125Z" fill="#D1D1D1"/>
<path d="M21.875 59.0625H35V61.25H21.875V59.0625Z" fill="#D1D1D1"/>
<path d="M21.875 15.3125H32.8125V17.5H21.875V15.3125Z" fill="#D1D1D1"/>
<path d="M6.5625 4.375H32.8125V6.5625H6.5625V4.375Z" fill="#D1D1D1"/>
</svg>
