<svg width="31" height="17" viewBox="0 0 31 17" fill="none" xmlns="http://www.w3.org/2000/svg">
<path d="M4.884 17H5.61V0.72H5.038L0.33 4.592L0.726 5.142L4.884 1.776V17ZM13.7839 5.868C15.3239 5.912 16.3945 6.38133 16.9959 7.276C17.5972 8.17067 17.8979 9.52 17.8979 11.324L17.8319 17H17.1499L17.2159 11.368C17.2159 10.84 17.1939 10.378 17.1499 9.982C17.1059 9.57133 17.0105 9.15333 16.8639 8.728C16.7319 8.288 16.5412 7.92867 16.2919 7.65C16.0425 7.35667 15.6979 7.122 15.2579 6.946C14.8179 6.75533 14.2972 6.66 13.6959 6.66C12.9479 6.66 12.3099 6.78467 11.7819 7.034C11.2539 7.28333 10.8505 7.584 10.5719 7.936C10.3079 8.288 10.0952 8.75733 9.93386 9.344C9.78719 9.93067 9.69919 10.4513 9.66986 10.906C9.64053 11.3607 9.62586 11.9327 9.62586 12.622V17H8.92186V5.89H9.62586L9.60386 8.134C9.82386 7.562 10.1685 7.1 10.6379 6.748C11.1219 6.38133 11.6205 6.13933 12.1339 6.022C12.6472 5.90467 13.1972 5.85333 13.7839 5.868ZM22.5096 17H20.2656V2.172L26.7116 2.128C28.0609 2.128 29.1096 2.58267 29.8576 3.492C30.6056 4.38667 30.9796 5.52333 30.9796 6.902C30.9796 8.25133 30.6056 9.39533 29.8576 10.334C29.1096 11.258 28.0536 11.7273 26.6896 11.742L22.4876 11.786L22.5096 17ZM22.5096 9.454H24.8636L25.3036 9.476C25.7876 9.476 26.1689 9.46867 26.4476 9.454C26.7263 9.42467 27.0269 9.366 27.3496 9.278C27.6723 9.19 27.9143 9.058 28.0756 8.882C28.2516 8.69133 28.3983 8.43467 28.5156 8.112C28.6329 7.78933 28.6916 7.386 28.6916 6.902C28.6916 6.13933 28.5083 5.53067 28.1416 5.076C27.7896 4.62133 27.3129 4.394 26.7116 4.394H22.5096V9.454Z" fill="white"/>
</svg>
