<svg width="120" height="22" viewBox="0 0 120 22" fill="none" xmlns="http://www.w3.org/2000/svg">
<path d="M6.216 21H7.14V0.28H6.412L0.42 5.208L0.924 5.908L6.216 1.624V21ZM17.5431 6.832C19.5031 6.888 20.8658 7.48533 21.6311 8.624C22.3964 9.76267 22.7791 11.48 22.7791 13.776L22.6951 21H21.8271L21.9111 13.832C21.9111 13.16 21.8831 12.572 21.8271 12.068C21.7711 11.5453 21.6498 11.0133 21.4631 10.472C21.2951 9.912 21.0524 9.45467 20.7351 9.1C20.4178 8.72667 19.9791 8.428 19.4191 8.204C18.8591 7.96133 18.1964 7.84 17.4311 7.84C16.4791 7.84 15.6671 7.99867 14.9951 8.316C14.3231 8.63333 13.8098 9.016 13.4551 9.464C13.1191 9.912 12.8484 10.5093 12.6431 11.256C12.4564 12.0027 12.3444 12.6653 12.3071 13.244C12.2698 13.8227 12.2511 14.5507 12.2511 15.428V21H11.3551V6.86H12.2511L12.2231 9.716C12.5031 8.988 12.9418 8.4 13.5391 7.952C14.1551 7.48533 14.7898 7.17733 15.4431 7.028C16.0964 6.87867 16.7964 6.81333 17.5431 6.832ZM26.4992 14.532C26.4992 15.9693 27.1058 17.276 28.3192 18.452C29.5325 19.628 30.9885 20.216 32.6872 20.216C34.7965 20.216 36.5418 19.4693 37.9232 17.976L38.6512 18.424C38.0538 19.3013 37.2418 19.9827 36.2152 20.468C35.2072 20.9347 34.0872 21.168 32.8552 21.168C30.7458 21.168 28.9912 20.496 27.5912 19.152C26.2098 17.7893 25.5192 16.0813 25.5192 14.028C25.5192 11.9 26.1632 10.1733 27.4512 8.848C28.7578 7.52267 30.4938 6.86 32.6592 6.86C34.6378 6.86 36.2432 7.57867 37.4752 9.016C38.7258 10.4347 39.3885 12.2733 39.4632 14.532H26.4992ZM32.6872 7.756C31.0445 7.756 29.6538 8.25067 28.5152 9.24C27.3765 10.2107 26.7232 11.6387 26.5552 13.524L38.5392 13.608C38.3152 11.816 37.6712 10.3973 36.6072 9.352C35.5432 8.288 34.2365 7.756 32.6872 7.756ZM45.4431 21L41.1871 6.86H42.3071L46.0871 20.244L50.4551 6.86H51.5751L55.8031 20.216L59.6951 6.86H60.6751L56.3631 21H55.1311L50.9311 8.4L46.8431 21H45.4431ZM66.4923 21H63.6363V2.128L71.8403 2.072C73.5577 2.072 74.8923 2.65067 75.8443 3.808C76.7963 4.94667 77.2723 6.39333 77.2723 8.148C77.2723 9.86533 76.7963 11.3213 75.8443 12.516C74.8923 13.692 73.5483 14.2893 71.8123 14.308L66.4643 14.364L66.4923 21ZM66.4923 11.396H69.4883L70.0483 11.424C70.6643 11.424 71.1497 11.4147 71.5043 11.396C71.859 11.3587 72.2417 11.284 72.6523 11.172C73.063 11.06 73.371 10.892 73.5763 10.668C73.8003 10.4253 73.987 10.0987 74.1363 9.688C74.2857 9.27733 74.3603 8.764 74.3603 8.148C74.3603 7.17733 74.127 6.40267 73.6603 5.824C73.2123 5.24533 72.6057 4.956 71.8403 4.956H66.4923V11.396ZM80.682 5.88C80.3833 5.56267 80.234 5.152 80.234 4.648C80.234 4.144 80.3927 3.73333 80.71 3.416C81.0273 3.08 81.438 2.912 81.942 2.912C82.502 2.912 82.9407 3.07067 83.258 3.388C83.5753 3.70533 83.734 4.12533 83.734 4.648C83.734 5.152 83.5753 5.56267 83.258 5.88C82.9407 6.17867 82.502 6.328 81.942 6.328C81.4193 6.328 80.9993 6.17867 80.682 5.88ZM83.258 7.672V21H80.626V7.672H83.258ZM99.853 7.364L94.757 14.224L99.853 21H96.689L93.161 16.408L89.633 21H86.441L91.565 14.224L86.469 7.364H89.577L93.161 12.152L96.717 7.364H99.853ZM114.375 15.624H103.791C104.37 17.528 105.695 18.48 107.767 18.48C108.626 18.48 109.363 18.3213 109.979 18.004C110.614 17.668 111.258 17.1173 111.911 16.352L114.011 17.584C113.358 18.6853 112.49 19.5533 111.407 20.188C110.325 20.8227 109.158 21.14 107.907 21.14C105.891 21.14 104.211 20.496 102.867 19.208C101.523 17.9013 100.851 16.2493 100.851 14.252C100.851 12.3107 101.514 10.6773 102.839 9.352C104.165 8.02667 105.798 7.364 107.739 7.364C109.718 7.364 111.323 8.04533 112.555 9.408C113.806 10.7707 114.431 12.5253 114.431 14.672L114.375 15.624ZM107.767 10.08C105.845 10.08 104.547 11.0227 103.875 12.908H111.407C110.922 11.0227 109.709 10.08 107.767 10.08ZM119.752 2.912V21H117.176L117.12 2.912H119.752Z" fill="white"/>
</svg>
