<svg width="34" height="34" viewBox="0 0 34 34" fill="none" xmlns="http://www.w3.org/2000/svg">
<path d="M11.5547 15.9375H4.38281C1.96609 15.9375 0 13.9714 0 11.5547V4.38281C0 1.96609 1.96609 0 4.38281 0H11.5547C13.9714 0 15.9375 1.96609 15.9375 4.38281V11.5547C15.9375 13.9714 13.9714 15.9375 11.5547 15.9375ZM4.38281 2.125C3.13783 2.125 2.125 3.13783 2.125 4.38281V11.5547C2.125 12.7997 3.13783 13.8125 4.38281 13.8125H11.5547C12.7997 13.8125 13.8125 12.7997 13.8125 11.5547V4.38281C13.8125 3.13783 12.7997 2.125 11.5547 2.125H4.38281Z" fill="white"/>
<path d="M29.6172 15.9375H22.4453C20.0286 15.9375 18.0625 13.9714 18.0625 11.5547V4.38281C18.0625 1.96609 20.0286 0 22.4453 0H29.6172C32.0339 0 34 1.96609 34 4.38281V11.5547C34 13.9714 32.0339 15.9375 29.6172 15.9375ZM22.4453 2.125C21.2003 2.125 20.1875 3.13783 20.1875 4.38281V11.5547C20.1875 12.7997 21.2003 13.8125 22.4453 13.8125H29.6172C30.8622 13.8125 31.875 12.7997 31.875 11.5547V4.38281C31.875 3.13783 30.8622 2.125 29.6172 2.125H22.4453Z" fill="white"/>
<path d="M26.0312 34C21.6373 34 18.0625 30.4252 18.0625 26.0312C18.0625 21.6373 21.6373 18.0625 26.0312 18.0625C30.4252 18.0625 34 21.6373 34 26.0312C34 30.4252 30.4252 34 26.0312 34ZM26.0312 20.1875C22.809 20.1875 20.1875 22.809 20.1875 26.0312C20.1875 29.2535 22.809 31.875 26.0312 31.875C29.2535 31.875 31.875 29.2535 31.875 26.0312C31.875 22.809 29.2535 20.1875 26.0312 20.1875Z" fill="white"/>
<path d="M11.5547 34H4.38281C1.96609 34 0 32.0339 0 29.6172V22.4453C0 20.0286 1.96609 18.0625 4.38281 18.0625H11.5547C13.9714 18.0625 15.9375 20.0286 15.9375 22.4453V29.6172C15.9375 32.0339 13.9714 34 11.5547 34ZM4.38281 20.1875C3.13783 20.1875 2.125 21.2003 2.125 22.4453V29.6172C2.125 30.8622 3.13783 31.875 4.38281 31.875H11.5547C12.7997 31.875 13.8125 30.8622 13.8125 29.6172V22.4453C13.8125 21.2003 12.7997 20.1875 11.5547 20.1875H4.38281Z" fill="white"/>
</svg>
