<svg width="70" height="70" viewBox="0 0 70 70" fill="none" xmlns="http://www.w3.org/2000/svg">
<path d="M28.4375 27.3438C21.8039 27.3438 16.4062 32.7414 16.4062 39.375C16.4062 46.0086 21.8039 51.4062 28.4375 51.4062C35.0711 51.4062 40.4688 46.0086 40.4688 39.375C40.4688 32.7414 35.0711 27.3438 28.4375 27.3438ZM28.4375 49.2188C23.0103 49.2188 18.5938 44.8033 18.5938 39.375C18.5938 33.9467 23.0103 29.5312 28.4375 29.5312C33.8647 29.5312 38.2812 33.9467 38.2812 39.375C38.2812 44.8033 33.8647 49.2188 28.4375 49.2188Z" fill="#D1D1D1"/>
<path d="M51.4062 42.6562V47.9806L59.3939 42.6562H61.25C64.2655 42.6562 66.7188 40.203 66.7188 37.1875V24.0625C66.7188 21.047 64.2655 18.5938 61.25 18.5938H55.3984C54.495 16.0486 52.0702 14.2188 49.2188 14.2188C46.3673 14.2188 43.9425 16.0486 43.0391 18.5938H37.1875C36.8134 18.5938 36.447 18.632 36.0938 18.7042V10.9375C36.0938 7.92203 33.6405 5.46875 30.625 5.46875H24.7734C23.87 2.92359 21.4452 1.09375 18.5938 1.09375C15.7423 1.09375 13.3175 2.92359 12.4141 5.46875H6.5625C3.54703 5.46875 1.09375 7.92203 1.09375 10.9375V24.0625C1.09375 27.078 3.54703 29.5312 6.5625 29.5312H15.3431C13.2737 32.2766 12.0312 35.6792 12.0312 39.375C12.0312 42.665 13.0134 45.7253 14.688 48.2967L13.125 49.8597L12.0312 48.7659L2.54734 58.2509C1.61 59.1872 1.09375 60.4341 1.09375 61.7586C1.09375 64.4941 3.31953 66.7188 6.055 66.7188C7.38062 66.7188 8.62641 66.2025 9.56266 65.2663L19.0466 55.7812L17.9528 54.6875L19.5158 53.1245C22.0872 54.7991 25.1475 55.7812 28.4375 55.7812C36.3606 55.7812 42.9888 50.1364 44.5134 42.6562H51.4062ZM55.7812 20.7812H61.25C63.0591 20.7812 64.5312 22.2534 64.5312 24.0625V37.1875C64.5312 38.9966 63.0591 40.4688 61.25 40.4688H58.7311L53.5938 43.8944V40.4688H44.788C44.812 40.1056 44.8438 39.7447 44.8438 39.375C44.8438 39.0053 44.812 38.6444 44.788 38.2812H60.1562V36.0938C60.1562 31.4923 57.295 27.5527 53.2612 25.9405C54.7925 24.7373 55.7812 22.8747 55.7812 20.7812ZM52.4169 36.0938L51.7486 27.72C55.3427 28.8083 57.9688 32.1486 57.9688 36.0938H52.4169ZM49.5239 27.3591L50.2217 36.0938H48.2158L48.9125 27.3623C49.0153 27.3591 49.1159 27.3438 49.2188 27.3438C49.3216 27.3438 49.4222 27.3558 49.5239 27.3591ZM46.0206 36.0938H44.5123C44.1164 34.1491 43.3606 32.3378 42.3413 30.7081C43.4623 29.2775 44.9805 28.2494 46.6878 27.7331L46.0206 36.0938ZM49.2188 16.4062C51.6316 16.4062 53.5938 18.3684 53.5938 20.7812C53.5938 23.1941 51.6316 25.1562 49.2188 25.1562C46.8059 25.1562 44.8438 23.1941 44.8438 20.7812C44.8438 18.3684 46.8059 16.4062 49.2188 16.4062ZM42.6562 20.7812C42.6562 22.8736 43.6439 24.7352 45.173 25.9383C43.5892 26.5694 42.1619 27.5625 41.0167 28.8619C39.153 26.6361 36.7062 24.9233 33.9194 23.9312C33.9905 22.1834 35.4233 20.7812 37.1875 20.7812H42.6562ZM25.1562 7.65625H30.625C32.4341 7.65625 33.9062 9.12844 33.9062 10.9375V19.7159C32.7753 20.5723 31.9977 21.8477 31.7942 23.3177C31.0581 23.1634 30.3002 23.0759 29.5312 23.0256V22.9688C29.5312 18.3673 26.67 14.4277 22.6362 12.8155C24.1675 11.6123 25.1562 9.74969 25.1562 7.65625ZM9.84375 22.9688C9.84375 19.0236 12.4698 15.6833 16.065 14.595L15.3956 22.9688H9.84375ZM18.2886 14.2341C18.3903 14.2308 18.4909 14.2188 18.5938 14.2188C18.6966 14.2188 18.7972 14.2308 18.8989 14.2341L19.5967 22.9688H17.5908L18.2886 14.2341ZM21.1225 14.595C24.7177 15.6833 27.3438 19.0236 27.3438 22.9688H21.7919L21.1225 14.595ZM18.5938 3.28125C21.0066 3.28125 22.9688 5.24344 22.9688 7.65625C22.9688 10.0691 21.0066 12.0312 18.5938 12.0312C16.1809 12.0312 14.2188 10.0691 14.2188 7.65625C14.2188 5.24344 16.1809 3.28125 18.5938 3.28125ZM3.28125 24.0625V10.9375C3.28125 9.12844 4.75344 7.65625 6.5625 7.65625H12.0312C12.0312 9.74969 13.02 11.6123 14.5512 12.8155C10.5175 14.4277 7.65625 18.3673 7.65625 22.9688V25.1562H20.288C19.2161 25.7731 18.2241 26.5092 17.3217 27.3438H6.5625C4.75344 27.3438 3.28125 25.8716 3.28125 24.0625ZM8.01609 63.7197C7.49219 64.2425 6.79547 64.5312 6.055 64.5312C4.52594 64.5312 3.28125 63.2866 3.28125 61.7586C3.28125 61.0181 3.57 60.3225 4.09391 59.7975L12.0312 51.8591L15.9534 55.7812L8.01609 63.7197ZM16.4062 53.1409L14.6716 51.4062L16.0158 50.062C16.5506 50.6822 17.1303 51.2619 17.7505 51.7967L16.4062 53.1409ZM28.4375 53.5938C20.5975 53.5938 14.2188 47.215 14.2188 39.375C14.2188 31.535 20.5975 25.1562 28.4375 25.1562C36.2775 25.1562 42.6562 31.535 42.6562 39.375C42.6562 47.215 36.2775 53.5938 28.4375 53.5938Z" fill="#D1D1D1"/>
<path d="M65.625 49.2188H45.9375C44.1284 49.2188 42.6562 50.6909 42.6562 52.5V65.625C42.6562 67.4341 44.1284 68.9062 45.9375 68.9062H65.625C67.4341 68.9062 68.9062 67.4341 68.9062 65.625V52.5C68.9062 50.6909 67.4341 49.2188 65.625 49.2188ZM66.719 65.625C66.719 66.2287 66.2277 66.7188 65.625 66.7188H45.9375C45.3348 66.7188 44.8438 66.2287 44.8438 65.625V52.5C44.8438 51.8963 45.3348 51.4062 45.9375 51.4062H65.625C66.2277 51.4062 66.719 51.8963 66.719 52.5V65.625Z" fill="#D1D1D1"/>
<path d="M62.3438 55.7812H60.1562V62.3438H57.9688V57.9688H55.7812V62.3438H53.5938V60.1562H51.4062V62.3438H49.2188V53.5938H47.0312V64.5312H64.5312V62.3438H62.3438V55.7812Z" fill="#D1D1D1"/>
<path d="M60.1562 22.9688H62.3438V25.1562H60.1562V22.9688Z" fill="#D1D1D1"/>
<path d="M60.1562 27.3438H62.3438V29.5312H60.1562V27.3438Z" fill="#D1D1D1"/>
<path d="M5.46875 9.84375H7.65625V12.0312H5.46875V9.84375Z" fill="#D1D1D1"/>
<path d="M5.46875 14.2188H7.65625V16.4062H5.46875V14.2188Z" fill="#D1D1D1"/>
</svg>
