<svg width="70" height="70" viewBox="0 0 70 70" fill="none" xmlns="http://www.w3.org/2000/svg">
<g clip-path="url(#clip0)">
<path d="M35.0002 23.3338C35.6443 23.3338 36.1666 23.8562 36.1666 24.5008C36.1666 25.1448 36.6889 25.6671 37.3335 25.6671C37.9776 25.6671 38.4999 25.1448 38.4999 24.5008C38.4999 22.5675 36.933 21.0005 35.0002 21.0005C33.0878 21.0491 31.5486 22.5878 31.5 24.5008C31.5 26.3881 33.2218 27.248 34.4784 27.8781C35.467 28.3716 36.1666 28.754 36.1666 29.1674C36.1276 29.7943 35.6272 30.2948 35.0002 30.3337C34.3556 30.3337 33.8333 29.8114 33.8333 29.1674C33.8333 28.5228 33.311 28.0004 32.6669 28.0004C32.0223 28.0004 31.5 28.5228 31.5 29.1674C31.5 31.1001 33.0669 32.667 35.0002 32.667C36.9127 32.619 38.4518 31.0798 38.4999 29.1674C38.4999 27.2795 36.7781 26.4196 35.5215 25.79C34.5334 25.296 33.8333 24.9136 33.8333 24.5008C33.8728 23.8732 34.3727 23.3734 35.0002 23.3338Z" fill="#D1D1D1"/>
<path d="M37.3335 37.3335C37.9776 37.3335 38.4999 36.8112 38.4999 36.1671C38.4999 35.5225 37.9776 35.0002 37.3335 35.0002H33.8333C32.5446 35.0002 31.5 36.0453 31.5 37.3335V44.3339C31.5 45.6226 32.5446 46.6672 33.8333 46.6672H37.3335C37.9776 46.6672 38.4999 46.1449 38.4999 45.5003C38.4999 44.8562 37.9776 44.3339 37.3335 44.3339H33.8333V42.0006H37.3335C37.9776 42.0006 38.4999 41.4783 38.4999 40.8337C38.4999 40.1896 37.9776 39.6673 37.3335 39.6673H33.8333V37.3335H37.3335Z" fill="#D1D1D1"/>
<path d="M35.0002 49.0003C33.0669 49.0003 31.5 50.5673 31.5 52.5V57.1671C31.5 59.0999 33.0669 60.6668 35.0002 60.6668C36.933 60.6668 38.4999 59.0999 38.4999 57.1671V52.5C38.4999 50.5673 36.933 49.0003 35.0002 49.0003ZM36.1666 57.1671C36.1666 57.8112 35.6443 58.3335 35.0002 58.3335C34.3556 58.3335 33.8333 57.8112 33.8333 57.1671V52.5C33.8333 51.8559 34.3556 51.3336 35.0002 51.3336C35.6443 51.3336 36.1666 51.8559 36.1666 52.5V57.1671Z" fill="#D1D1D1"/>
<path d="M66.5001 62.9999H65.3337V31.5005C65.3337 29.5672 63.7662 28.0003 61.8335 28.0003H50.1671C48.2339 28.0003 46.667 29.5672 46.667 31.5005V62.9999H44.3337V19.8336C44.3337 17.9008 42.7668 16.3339 40.8335 16.3339H39.2212L36.7411 11.3721C38.3598 10.8679 39.6794 9.68499 40.3577 8.1309C42.5035 8.11701 44.5377 7.17281 45.9332 5.54235C46.7337 4.58159 46.8955 3.24058 46.346 2.11694C45.6662 0.793025 44.2915 -0.0283471 42.8031 0.000491669H27.1992C25.7102 -0.0283471 24.3351 0.792491 23.6547 2.11694C23.1057 3.24058 23.2669 4.58159 24.0675 5.54235C25.463 7.17228 27.4966 8.11701 29.6419 8.1309C30.3202 9.68499 31.6398 10.8679 33.2585 11.3721L30.7795 16.3339H29.1672C27.2344 16.3339 25.667 17.9008 25.667 19.8336V62.9999H23.3337V43.1668C23.3337 41.2341 21.7668 39.6672 19.8341 39.6672H8.16716C6.23443 39.6672 4.66752 41.2341 4.66752 43.1668V62.9999H3.50062C1.56789 62.9999 0.000976562 64.5668 0.000976562 66.5001C0.000976562 68.4328 1.56789 69.9997 3.50062 69.9997H66.5001C68.4333 69.9997 70.0002 68.4328 70.0002 66.5001C70.0002 64.5668 68.4333 62.9999 66.5001 62.9999ZM49.0002 31.5005C49.0002 30.8559 49.5225 30.3336 50.1671 30.3336H61.8335C62.4776 30.3336 63.0004 30.8559 63.0004 31.5005V62.9999H49.0002V31.5005ZM44.2413 3.12523C44.4031 3.43818 44.3529 3.81896 44.1153 4.07958C43.2821 5.04301 42.1035 5.64008 40.8335 5.74315V2.33376H42.8031C43.3943 2.30119 43.9524 2.60827 44.2413 3.12523ZM25.7594 3.12523C26.0488 2.60773 26.6074 2.30119 27.1992 2.33376H29.1672V5.74315C27.8982 5.64168 26.7201 5.04621 25.8865 4.08385C25.6467 3.82324 25.5954 3.43979 25.7594 3.12523ZM31.5004 5.83394V2.33376H38.5002V5.83394C38.5002 7.76721 36.9333 9.33412 35.0006 9.33412C33.0673 9.33412 31.5004 7.76721 31.5004 5.83394ZM35.0006 13.1093L36.6129 16.3339H33.3883L35.0006 13.1093ZM28.0008 19.8336C28.0008 19.1895 28.5231 18.6672 29.1672 18.6672H40.8335C41.4781 18.6672 42.0004 19.1895 42.0004 19.8336V62.9999H28.0008V19.8336ZM7.00079 43.1668C7.00079 42.5228 7.5231 42.0005 8.16716 42.0005H19.8341C20.4781 42.0005 21.0004 42.5228 21.0004 43.1668V62.9999H7.00079V43.1668ZM66.5001 67.6665H3.50062C2.85655 67.6665 2.33425 67.1442 2.33425 66.5001C2.33425 65.8555 2.85655 65.3332 3.50062 65.3332H66.5001C67.1447 65.3332 67.667 65.8555 67.667 66.5001C67.667 67.1442 67.1447 67.6665 66.5001 67.6665Z" fill="#D1D1D1"/>
<path d="M57.167 3.98351L57.5088 4.3253C57.9665 4.7675 58.6944 4.76163 59.1441 4.31142C59.5943 3.86121 59.6007 3.13382 59.1585 2.67613L56.8252 0.3423C56.7162 0.233887 56.587 0.147369 56.4449 0.0891571C56.1592 -0.0283356 55.8388 -0.0283356 55.5536 0.0891571C55.411 0.147369 55.2817 0.233887 55.1728 0.3423L52.8395 2.67613C52.3978 3.13382 52.4037 3.86121 52.8539 4.31142C53.3041 4.76163 54.0315 4.7675 54.4892 4.3253L54.8337 3.98351V9.33423C54.8337 9.9783 55.356 10.5006 56.0001 10.5006C56.6447 10.5006 57.167 9.9783 57.167 9.33423V3.98351Z" fill="#D1D1D1"/>
<path d="M55.9999 12.8338C55.3558 12.8338 54.8335 13.3561 54.8335 14.0007V16.334C54.8335 16.9781 55.3558 17.5004 55.9999 17.5004C56.6445 17.5004 57.1668 16.9781 57.1668 16.334V14.0007C57.1668 13.3561 56.6445 12.8338 55.9999 12.8338Z" fill="#D1D1D1"/>
<path d="M14.4469 19.9239C14.1611 19.8059 13.8407 19.8059 13.5555 19.9239C13.4129 19.9821 13.2837 20.0681 13.1747 20.1771L10.8414 22.5103C10.3998 22.968 10.4057 23.6954 10.8559 24.1456C11.3061 24.5958 12.0335 24.6023 12.4912 24.1601L12.8346 23.8167V25.6672C12.8346 26.3118 13.3569 26.8341 14.0009 26.8341C14.6455 26.8341 15.1678 26.3118 15.1678 25.6672V23.8167L15.5096 24.159C15.9673 24.6007 16.6947 24.5948 17.1449 24.1446C17.5951 23.6944 17.6015 22.967 17.1593 22.5093L14.8261 20.176C14.7176 20.0676 14.5884 19.9816 14.4469 19.9239Z" fill="#D1D1D1"/>
<path d="M14.0004 29.1672C13.3563 29.1672 12.834 29.6895 12.834 30.3336V36.1671C12.834 36.8112 13.3563 37.3335 14.0004 37.3335C14.645 37.3335 15.1673 36.8112 15.1673 36.1671V30.3336C15.1673 29.6895 14.645 29.1672 14.0004 29.1672Z" fill="#D1D1D1"/>
</g>
<defs>
<clipPath id="clip0">
<rect width="70" height="70" fill="white"/>
</clipPath>
</defs>
</svg>
