<svg width="70" height="70" viewBox="0 0 70 70" fill="none" xmlns="http://www.w3.org/2000/svg">
<path d="M29.9915 29.5086L20.6582 20.1752C20.202 19.719 19.4647 19.719 19.0086 20.1752C18.5525 20.6314 18.5525 21.3687 19.0086 21.8248L28.3418 31.1582C28.5693 31.3857 28.868 31.5 29.1666 31.5C29.4654 31.5 29.764 31.3857 29.9915 31.1582C30.4477 30.702 30.4477 29.9647 29.9915 29.5086Z" fill="#D1D1D1"/>
<path d="M29.9911 20.1752C29.5349 19.719 28.7976 19.719 28.3415 20.1752L19.0081 29.5086C18.552 29.9648 18.552 30.7021 19.0081 31.1582C19.2356 31.3857 19.5343 31.5 19.8329 31.5C20.1315 31.5 20.4302 31.3857 20.6577 31.1582L29.9911 21.8248C30.4473 21.3687 30.4473 20.6314 29.9911 20.1752Z" fill="#D1D1D1"/>
<path d="M50.9913 57.5086L46.3247 52.8418C45.8685 52.3856 45.1312 52.3856 44.6751 52.8418C44.219 53.298 44.219 54.0354 44.6751 54.4915L49.3417 59.1582C49.5692 59.3857 49.8679 59.5 50.1665 59.5C50.4652 59.5 50.7638 59.3857 50.9913 59.1582C51.4476 58.702 51.4476 57.9647 50.9913 57.5086Z" fill="#D1D1D1"/>
<path d="M50.9913 52.8418C50.5351 52.3856 49.7978 52.3856 49.3417 52.8418L44.6751 57.5084C44.219 57.9647 44.219 58.702 44.6751 59.1581C44.9026 59.3856 45.2013 59.4999 45.4999 59.4999C45.7986 59.4999 46.0972 59.3856 46.3247 59.1581L50.9913 54.4915C51.4476 54.0354 51.4476 53.298 50.9913 52.8418Z" fill="#D1D1D1"/>
<path d="M25.6666 47.8334C23.0929 47.8334 21 49.9264 21 52.5C21 55.0737 23.093 57.1666 25.6666 57.1666C28.2402 57.1666 30.3332 55.0736 30.3332 52.5C30.3334 49.9263 28.2404 47.8334 25.6666 47.8334ZM25.6666 54.8334C24.3798 54.8334 23.3332 53.7869 23.3332 52.5C23.3332 51.2132 24.3797 50.1666 25.6666 50.1666C26.9536 50.1666 28 51.2132 28 52.5C28 53.7868 26.9536 54.8334 25.6666 54.8334Z" fill="#D1D1D1"/>
<path d="M44.3336 38.5C41.7599 38.5 39.667 40.593 39.667 43.1666C39.667 45.7404 41.76 47.8332 44.3336 47.8332C46.9072 47.8332 49.0002 45.7402 49.0002 43.1666C49.0002 40.593 46.9072 38.5 44.3336 38.5ZM44.3336 45.5C43.0468 45.5 42.0002 44.4536 42.0002 43.1666C42.0002 41.8798 43.0467 40.8332 44.3336 40.8332C45.6205 40.8332 46.667 41.8797 46.667 43.1666C46.6669 44.4536 45.6204 45.5 44.3336 45.5Z" fill="#D1D1D1"/>
<path d="M43.1666 22.1666C42.5227 22.1666 42 22.6881 42 23.3332C42 32.3399 34.6734 39.6666 25.6666 39.6666C25.0227 39.6666 24.5 40.1881 24.5 40.8332C24.5 41.4784 25.0227 41.9999 25.6666 41.9999C35.959 41.9999 44.3333 33.6256 44.3333 23.3332C44.3334 22.6882 43.8107 22.1666 43.1666 22.1666Z" fill="#D1D1D1"/>
<path d="M48.6581 27.1752L43.9914 22.5086C43.5352 22.0523 42.7979 22.0523 42.3418 22.5086L37.6752 27.1752C37.219 27.6313 37.219 28.3687 37.6752 28.8248C38.1313 29.281 38.8687 29.281 39.3248 28.8248L43.1666 24.983L47.0084 28.8248C47.2359 29.0523 47.5346 29.1666 47.8332 29.1666C48.132 29.1666 48.4306 29.0523 48.6581 28.8248C49.1142 28.3687 49.1142 27.6313 48.6581 27.1752Z" fill="#D1D1D1"/>
<path d="M44.8816 3.5H41.8961C41.0281 3.5 40.1986 3.07768 39.6771 2.36947C38.5852 0.886621 36.8363 0 35 0C33.1637 0 31.4148 0.886621 30.3228 2.36947C29.8014 3.07768 28.9718 3.5 28.1039 3.5H25.1184C22.8469 3.5 21 5.34803 21 7.61838V14C21 14.6452 21.5227 15.1666 22.1666 15.1666H47.8332C48.4772 15.1666 48.9999 14.6452 48.9999 14V7.61838C49 5.34803 47.1532 3.5 44.8816 3.5ZM46.6666 12.8334H23.3334V7.61838C23.3334 6.63482 24.1348 5.83338 25.1184 5.83338H28.1039C29.7104 5.83338 31.2423 5.05641 32.2025 3.7532C32.8662 2.85018 33.886 2.33338 35.0001 2.33338C36.1143 2.33338 37.1339 2.85018 37.7989 3.7532C38.7578 5.05641 40.2898 5.83338 41.8962 5.83338H44.8818C45.8653 5.83338 46.6668 6.63482 46.6668 7.61838V12.8334H46.6666Z" fill="#D1D1D1"/>
<path d="M55.9999 5.83337H47.8333C47.1893 5.83337 46.6666 6.35482 46.6666 7V12.8334H23.3333V7C23.3333 6.35482 22.8106 5.83337 22.1666 5.83337H13.9999C10.7834 5.83337 8.1665 8.45017 8.1665 11.6668V64.1668C8.1665 67.3832 10.7834 70 13.9999 70H55.9999C59.2163 70 61.8333 67.3832 61.8333 64.1666V11.6666C61.8333 8.45017 59.2163 5.83337 55.9999 5.83337ZM59.4999 64.1666C59.4999 66.0963 57.9295 67.6666 55.9999 67.6666H13.9999C12.0702 67.6666 10.4999 66.0963 10.4999 64.1666V11.6666C10.4999 9.73697 12.0702 8.16662 13.9999 8.16662H20.9999V14C20.9999 14.6452 21.5226 15.1666 22.1665 15.1666H47.8331C48.4771 15.1666 48.9997 14.6452 48.9997 14V8.16662H55.9997C57.9294 8.16662 59.4997 9.73697 59.4997 11.6666V64.1666H59.4999Z" fill="#D1D1D1"/>
<path d="M53.6662 10.5H47.8329C47.1889 10.5 46.6663 11.0214 46.6663 11.6666V12.8332H23.333V11.6666C23.333 11.0214 22.8103 10.5 22.1664 10.5H16.333C14.4034 10.5 12.833 12.0704 12.833 14V61.8334C12.833 63.763 14.4034 65.3334 16.333 65.3334H53.6664C55.596 65.3334 57.1664 63.763 57.1664 61.8334V14C57.1662 12.0704 55.5959 10.5 53.6662 10.5ZM54.833 61.8334C54.833 62.4773 54.3092 63 53.6664 63H16.333C15.6902 63 15.1664 62.4773 15.1664 61.8334V14C15.1664 13.3561 15.6902 12.8334 16.333 12.8334H20.9996V14C20.9996 14.6452 21.5223 15.1666 22.1662 15.1666H47.8329C48.4768 15.1666 48.9995 14.6452 48.9995 14V12.8334H53.6661C54.309 12.8334 54.8327 13.3561 54.8327 14V61.8334H54.833Z" fill="#D1D1D1"/>
<path d="M36.1725 4.66663H33.8275C32.5441 4.66663 31.5 5.71075 31.5 6.99413V9.33913C31.5 10.6225 32.5441 11.6666 33.8275 11.6666H36.1725C37.4559 11.6666 38.5 10.6225 38.5 9.33913V6.99413C38.5 5.71088 37.4559 4.66663 36.1725 4.66663ZM33.8334 9.33913L33.8275 7.00001L36.1666 6.99413L36.1679 9.33325L33.8334 9.33913Z" fill="#D1D1D1"/>
</svg>
