<svg width="70" height="70" viewBox="0 0 70 70" fill="none" xmlns="http://www.w3.org/2000/svg">
<g clip-path="url(#clip0)">
<path d="M53.8123 53.6667H51.479V58.3333H30.479V60.6667H51.479V64.1667C51.479 66.0995 49.9119 67.6667 47.979 67.6667H22.3123C21.0619 67.6649 19.9067 66.9984 19.2789 65.9167L17.2583 67.0833C18.3042 68.8852 20.2291 69.996 22.3123 70H47.979C51.1993 69.996 53.8084 67.387 53.8123 64.1667V53.6667Z" fill="#D1D1D1"/>
<path d="M33.979 63H36.3123V65.3333H33.979V63Z" fill="#D1D1D1"/>
<path d="M40.9793 31.5V29.1667H37.4201C36.8385 21.7218 30.9242 15.8075 23.4793 15.2259V11.6667H21.146V15.2259C20.3599 15.2863 19.58 15.4082 18.8127 15.5899V9.33333H37.4793V7H18.8127V5.83333C18.8127 3.90047 20.3798 2.33333 22.3127 2.33333H47.9793C48.8315 2.33333 49.6547 2.64437 50.2939 3.20833L51.8376 1.45833C50.7724 0.517823 49.4001 -0.000569192 47.9793 4.69001e-07H22.3127C19.0924 0.00398811 16.4833 2.61304 16.4793 5.83333V16.3333C11.2259 18.5339 7.64559 23.4883 7.20524 29.1667H3.646V31.5H7.20809C7.75838 38.9591 13.6868 44.8916 21.146 45.4465V49H23.4793V45.4465C30.9385 44.8916 36.8669 38.9591 37.4172 31.5H40.9793ZM21.146 40.8333V43.1131C19.5185 42.9667 17.9348 42.5093 16.4793 41.7664V39.6667C16.4793 36.4452 19.0912 33.8333 22.3127 33.8333C25.5341 33.8333 28.146 36.4452 28.146 39.6667V41.7664C26.6911 42.5104 25.1069 42.9684 23.4793 43.1165V40.8333H21.146ZM18.8127 28C18.8127 26.0671 20.3798 24.5 22.3127 24.5C24.2455 24.5 25.8127 26.0671 25.8127 28C25.8127 29.9329 24.2455 31.5 22.3127 31.5C20.3798 31.5 18.8127 29.9329 18.8127 28ZM30.8678 39.9002C30.7419 40.0164 30.6075 40.1099 30.4793 40.2175V39.6667C30.4765 36.619 28.7766 33.8265 26.0707 32.424C27.9449 30.8455 28.6325 28.2638 27.7922 25.9623C26.952 23.6603 24.7628 22.1291 22.3127 22.1291C19.8625 22.1291 17.6733 23.6603 16.8331 25.9623C15.9928 28.2638 16.6804 30.8455 18.5546 32.424C15.8487 33.8265 14.1488 36.619 14.146 39.6667V40.2232C14.0167 40.1173 13.8822 40.0176 13.7575 39.9059C11.3398 37.7378 9.83309 34.7345 9.54142 31.5H11.8127V29.1667H9.53857C10.1088 23.0075 14.9868 18.1295 21.146 17.5592V19.8333H23.4793V17.5592C29.6385 18.1295 34.5165 23.0075 35.0868 29.1667H32.8127V31.5H35.0839C34.7922 34.7345 33.2855 37.7378 30.8678 39.9059V39.9002Z" fill="#D1D1D1"/>
<path d="M66.6458 21C67.2901 21 67.8125 20.4776 67.8125 19.8334V5.83335C67.8125 5.18907 67.2901 4.66669 66.6458 4.66669H40.9792C40.3349 4.66669 39.8125 5.18907 39.8125 5.83335V19.8334C39.8125 20.4776 40.3349 21 40.9792 21H66.6458ZM42.1458 7.00002H65.4792V18.6667H42.1458V7.00002Z" fill="#D1D1D1"/>
<path d="M44.479 9.33331H49.1457V11.6666H44.479V9.33331Z" fill="#D1D1D1"/>
<path d="M51.479 9.33331H63.1457V11.6666H51.479V9.33331Z" fill="#D1D1D1"/>
<path d="M44.479 14H63.1457V16.3333H44.479V14Z" fill="#D1D1D1"/>
<path d="M66.4394 23.3333C65.5359 23.335 64.6643 23.6666 63.9893 24.2664L53.8122 33.2386V23.3333H51.4789V35H51.8161L45.179 40.8567C40.861 41.1039 37.484 44.6745 37.4789 49V51.0582C37.4835 52.2157 36.8289 53.2759 35.791 53.7891C35.3062 54.0307 35.0516 54.5741 35.1758 55.1011C35.2999 55.628 35.7705 56.0005 36.3122 56H44.4789C48.8043 55.9949 52.375 52.6179 52.6222 48.2999L69.2193 29.4908C70.1826 28.3982 70.4167 26.8424 69.8169 25.5145C69.2176 24.1867 67.896 23.3333 66.4394 23.3333ZM44.4789 53.6666H39.1434C39.5838 52.868 39.8139 51.9702 39.8122 51.0582V49C39.8162 45.9608 42.1496 43.4321 45.179 43.1854L50.2934 48.2999C50.0473 51.3293 47.518 53.6632 44.4789 53.6666ZM67.4693 27.9476L51.4265 46.13L47.3489 42.0535L65.5313 26.0096C66.0754 25.5322 66.8962 25.559 67.4084 26.0705C67.9199 26.5827 67.9467 27.4035 67.4693 27.9476Z" fill="#D1D1D1"/>
<path d="M1.31266 64.1667H26.9793C27.6236 64.1667 28.146 63.6443 28.146 63V53.6667C28.146 53.0224 27.6236 52.5 26.9793 52.5H18.8127V46.6667H16.4793V52.5H1.31266C0.668376 52.5 0.145996 53.0224 0.145996 53.6667V63C0.145996 63.6443 0.668376 64.1667 1.31266 64.1667ZM2.47933 54.8333H25.8127V61.8333H2.47933V54.8333Z" fill="#D1D1D1"/>
<path d="M4.8125 57.1667H10.6458V59.5H4.8125V57.1667Z" fill="#D1D1D1"/>
<path d="M12.979 57.1667H23.479V59.5H12.979V57.1667Z" fill="#D1D1D1"/>
<path d="M1.31266 16.3334H12.9793C13.6236 16.3334 14.146 15.811 14.146 15.1667V5.83335C14.146 5.18907 13.6236 4.66669 12.9793 4.66669H1.31266C0.668376 4.66669 0.145996 5.18907 0.145996 5.83335V15.1667C0.145996 15.811 0.668376 16.3334 1.31266 16.3334ZM2.47933 7.00002H11.8127V14H2.47933V7.00002Z" fill="#D1D1D1"/>
<path d="M4.8125 9.33331H9.47917V11.6666H4.8125V9.33331Z" fill="#D1D1D1"/>
</g>
<defs>
<clipPath id="clip0">
<rect width="70" height="70" fill="white"/>
</clipPath>
</defs>
</svg>
