<svg width="80" height="80" viewBox="0 0 80 80" fill="none" xmlns="http://www.w3.org/2000/svg">
<path d="M65.125 13.6875H14.875C12.625 13.6875 10.8125 15.75 10.8125 18.25V52.5C10.8125 55 12.625 57.0625 14.875 57.0625H33.375L32.75 64.1875H28.5625C27.9375 64.1875 27.4375 64.6875 27.4375 65.3125C27.4375 65.9375 27.9375 66.4375 28.5625 66.4375H51.5C52.125 66.4375 52.625 65.9375 52.625 65.3125C52.625 64.6875 52.125 64.1875 51.5 64.1875H47.3125L46.6875 57.0625H65.1875C67.4375 57.0625 69.25 55 69.25 52.5V18.1875C69.25 15.6875 67.375 13.6875 65.125 13.6875ZM14.875 15.875H65.125C66.1875 15.875 67 16.9375 67 18.25V18.3125H13V18.25C13 16.875 13.8125 15.875 14.875 15.875ZM13 20.5H67.0625V48.375H13V20.5ZM45.0625 64.125H34.9375L35.5625 57H44.4375L45.0625 64.125ZM65.125 54.8125H45.4375H34.5625H14.875C13.8125 54.8125 13 53.75 13 52.4375V50.4375H67.0625V52.5C67.0625 53.75 66.1875 54.8125 65.125 54.8125Z" fill="#D1D1D1"/>
<path d="M54.1877 34.625L46.8752 31C46.3127 30.75 45.6877 30.9375 45.4377 31.5C45.1877 32.0625 45.3752 32.6875 45.9377 32.9375L51.2502 35.625L45.8752 38.25C45.3128 38.5 45.1252 39.1875 45.3752 39.6875C45.5627 40.0625 45.9377 40.3125 46.3752 40.3125C46.5627 40.3125 46.6877 40.25 46.8752 40.1875L54.1877 36.5625C54.5627 36.375 54.8127 36 54.8127 35.5625C54.8127 35.125 54.5627 34.8125 54.1877 34.625Z" fill="#D1D1D1"/>
<path d="M34.625 31.5C34.375 30.9375 33.6875 30.75 33.1875 31L25.875 34.625C25.5 34.8125 25.25 35.1875 25.25 35.625C25.25 36.0625 25.5 36.4375 25.875 36.625L33.125 40.25C33.3125 40.3125 33.4375 40.375 33.625 40.375C34 40.375 34.4375 40.125 34.625 39.75C34.875 39.1875 34.6875 38.5625 34.125 38.3125L28.75 35.625L34.125 33C34.6875 32.6875 34.875 32.0625 34.625 31.5Z" fill="#D1D1D1"/>
<path d="M43.1247 28.375C42.5622 28.125 41.9372 28.375 41.6872 28.9375L36.2497 41.8125C35.9997 42.375 36.2497 43 36.8122 43.25C36.9372 43.3125 37.1247 43.3125 37.2497 43.3125C37.6872 43.3125 38.0622 43.0625 38.2497 42.625L43.7497 29.8125C43.9372 29.25 43.6872 28.5625 43.1247 28.375Z" fill="#D1D1D1"/>
</svg>
